<svg width="97" height="97" viewBox="0 0 97 97" fill="none" xmlns="http://www.w3.org/2000/svg">
<g filter="url(#filter0_dd_2_40)">
<circle cx="48.5" cy="48.5" r="32.5" fill="#141414"/>
</g>
<g clip-path="url(#clip0_2_40)">
<path d="M34.6406 54.7031C35.0273 54.7031 35.3613 54.5889 35.7393 54.3691L44.748 49.0781C45.2666 48.7705 45.5918 48.4102 45.6973 47.9795V53.0508C45.6973 54.1143 46.3477 54.7031 47.1211 54.7031C47.5078 54.7031 47.8418 54.5889 48.2197 54.3691L57.2285 49.0781C57.7559 48.7705 58.0723 48.4102 58.1865 47.9795V53.7012C58.1865 54.5361 58.6084 54.9668 59.4521 54.9668H61.5176C62.3525 54.9668 62.7832 54.5361 62.7832 53.7012V41.6074C62.7832 40.7549 62.3525 40.3418 61.5176 40.3418H59.4521C58.6172 40.3418 58.1865 40.7725 58.1865 41.6074V47.2676C58.0723 46.8369 57.7559 46.4941 57.2285 46.1777L48.2197 40.8867C47.8418 40.667 47.5078 40.5527 47.1211 40.5527C46.3477 40.5527 45.6973 41.1328 45.6973 42.2051V47.2676C45.5918 46.8369 45.2754 46.4941 44.748 46.1777L35.7393 40.8867C35.3525 40.667 35.0273 40.5527 34.6318 40.5527C33.8584 40.5527 33.2168 41.1328 33.2168 42.2051V53.0508C33.2168 54.1143 33.8672 54.7031 34.6406 54.7031Z" fill="white"/>
</g>
<defs>
<filter id="filter0_dd_2_40" x="0" y="0" width="97" height="97" filterUnits="userSpaceOnUse" color-interpolation-filters="sRGB">
<feFlood flood-opacity="0" result="BackgroundImageFix"/>
<feColorMatrix in="SourceAlpha" type="matrix" values="0 0 0 0 0 0 0 0 0 0 0 0 0 0 0 0 0 0 127 0" result="hardAlpha"/>
<feOffset dx="-4" dy="-4"/>
<feGaussianBlur stdDeviation="6"/>
<feComposite in2="hardAlpha" operator="out"/>
<feColorMatrix type="matrix" values="0 0 0 0 0.125 0 0 0 0 0.125 0 0 0 0 0.125 0 0 0 1 0"/>
<feBlend mode="normal" in2="BackgroundImageFix" result="effect1_dropShadow_2_40"/>
<feColorMatrix in="SourceAlpha" type="matrix" values="0 0 0 0 0 0 0 0 0 0 0 0 0 0 0 0 0 0 127 0" result="hardAlpha"/>
<feOffset dx="4" dy="4"/>
<feGaussianBlur stdDeviation="6"/>
<feComposite in2="hardAlpha" operator="out"/>
<feColorMatrix type="matrix" values="0 0 0 0 0 0 0 0 0 0 0 0 0 0 0 0 0 0 0.5 0"/>
<feBlend mode="normal" in2="effect1_dropShadow_2_40" result="effect2_dropShadow_2_40"/>
<feBlend mode="normal" in="SourceGraphic" in2="effect2_dropShadow_2_40" result="shape"/>
</filter>
<clipPath id="clip0_2_40">
<rect width="28" height="28" fill="white" transform="translate(34 34)"/>
</clipPath>
</defs>
</svg>
