<svg width="97" height="97" viewBox="0 0 97 97" fill="none" xmlns="http://www.w3.org/2000/svg">
<g filter="url(#filter0_dd_44_34)">
<circle cx="48.5" cy="48.5" r="32.5" fill="#141414"/>
</g>
<path d="M50.9881 58.8763C57.7513 58.8763 63.3336 53.294 63.3336 46.5308C63.3336 42.6781 61.4132 39.0281 58.5266 36.8572C57.8825 36.3324 57.0952 36.4278 56.7016 36.9884C56.2722 37.5729 56.463 38.2766 57.0117 38.7657C59.3615 40.5668 60.8525 43.346 60.8645 46.5308C60.8764 52.0058 56.463 56.4072 50.9881 56.4072C45.5131 56.4072 41.1355 52.0058 41.1355 46.5308C41.1355 41.9028 44.2607 38.05 48.5309 36.9646V38.6941C48.5309 39.6126 49.2108 39.8631 49.9503 39.3263L53.982 36.4755C54.5784 36.0342 54.5903 35.3662 53.982 34.9368L49.9623 32.0741C49.2108 31.5373 48.5309 31.7759 48.5309 32.7063V34.4478C42.9247 35.6048 38.6545 40.6145 38.6545 46.5308C38.6545 53.294 44.2368 58.8763 50.9881 58.8763ZM47.5767 51.5287C48.1134 51.5287 48.4474 51.1708 48.4474 50.5983V43.2029C48.4474 42.4872 48.0657 42.1175 47.4335 42.1175C47.0518 42.1175 46.7656 42.2367 46.3004 42.5827L44.7617 43.68C44.4396 43.9424 44.2965 44.181 44.2965 44.5031C44.2965 44.9325 44.6424 45.2903 45.0599 45.2903C45.3342 45.2903 45.4893 45.2187 45.7159 45.004L46.7178 44.1929V50.5983C46.7178 51.1589 47.0518 51.5287 47.5767 51.5287ZM53.5645 51.6479C55.5684 51.6479 56.8805 50.3597 56.8805 48.3797C56.8805 46.6024 55.6877 45.3857 54.0536 45.3857C53.326 45.3857 52.5626 45.7317 52.2286 46.2923L52.4194 43.7874H55.8428C56.2722 43.7874 56.5942 43.4534 56.5942 43.0001C56.5942 42.5469 56.2722 42.2487 55.8428 42.2487H52.0497C51.3936 42.2487 51.0239 42.6423 50.9761 43.3341L50.7376 46.7336C50.6779 47.3777 51.0358 47.6998 51.5964 47.6998C52.0377 47.6998 52.2047 47.6163 52.5268 47.3658C52.9443 46.996 53.2902 46.829 53.7554 46.829C54.638 46.829 55.2106 47.4731 55.2106 48.4155C55.2106 49.3936 54.5307 50.1092 53.6242 50.1092C52.9443 50.1092 52.3956 49.7275 52.0855 49.155C51.9065 48.8687 51.6918 48.7017 51.3578 48.7017C50.9165 48.7017 50.6064 49.0119 50.6064 49.4651C50.6064 49.644 50.6422 49.811 50.7137 49.99C51.0358 50.813 52.0974 51.6479 53.5645 51.6479Z" fill="#FA6400"/>
<defs>
<filter id="filter0_dd_44_34" x="0" y="0" width="97" height="97" filterUnits="userSpaceOnUse" color-interpolation-filters="sRGB">
<feFlood flood-opacity="0" result="BackgroundImageFix"/>
<feColorMatrix in="SourceAlpha" type="matrix" values="0 0 0 0 0 0 0 0 0 0 0 0 0 0 0 0 0 0 127 0" result="hardAlpha"/>
<feOffset dx="4" dy="4"/>
<feGaussianBlur stdDeviation="6"/>
<feComposite in2="hardAlpha" operator="out"/>
<feColorMatrix type="matrix" values="0 0 0 0 0.125 0 0 0 0 0.125 0 0 0 0 0.125 0 0 0 1 0"/>
<feBlend mode="normal" in2="BackgroundImageFix" result="effect1_dropShadow_44_34"/>
<feColorMatrix in="SourceAlpha" type="matrix" values="0 0 0 0 0 0 0 0 0 0 0 0 0 0 0 0 0 0 127 0" result="hardAlpha"/>
<feOffset dx="-4" dy="-4"/>
<feGaussianBlur stdDeviation="6"/>
<feComposite in2="hardAlpha" operator="out"/>
<feColorMatrix type="matrix" values="0 0 0 0 0 0 0 0 0 0 0 0 0 0 0 0 0 0 0.5 0"/>
<feBlend mode="normal" in2="effect1_dropShadow_44_34" result="effect2_dropShadow_44_34"/>
<feBlend mode="normal" in="SourceGraphic" in2="effect2_dropShadow_44_34" result="shape"/>
</filter>
</defs>
</svg>
