<svg width="97" height="97" viewBox="0 0 97 97" fill="none" xmlns="http://www.w3.org/2000/svg">
<g filter="url(#filter0_dd_2_41)">
<circle cx="48.5" cy="48.5" r="32.5" fill="#141414"/>
</g>
<path d="M48.9881 60.8763C55.7513 60.8763 61.3336 55.294 61.3336 48.5308C61.3336 44.6781 59.4132 41.0281 56.5266 38.8572C55.8825 38.3324 55.0952 38.4278 54.7016 38.9884C54.2722 39.5729 54.463 40.2766 55.0117 40.7657C57.3615 42.5668 58.8525 45.346 58.8645 48.5308C58.8764 54.0058 54.463 58.4072 48.9881 58.4072C43.5131 58.4072 39.1355 54.0058 39.1355 48.5308C39.1355 43.9028 42.2607 40.05 46.5309 38.9646V40.6941C46.5309 41.6126 47.2108 41.8631 47.9503 41.3263L51.982 38.4755C52.5784 38.0342 52.5903 37.3662 51.982 36.9368L47.9623 34.0741C47.2108 33.5373 46.5309 33.7759 46.5309 34.7063V36.4478C40.9247 37.6048 36.6545 42.6145 36.6545 48.5308C36.6545 55.294 42.2368 60.8763 48.9881 60.8763ZM45.5767 53.5287C46.1134 53.5287 46.4474 53.1708 46.4474 52.5983V45.2029C46.4474 44.4872 46.0657 44.1175 45.4335 44.1175C45.0518 44.1175 44.7656 44.2367 44.3004 44.5827L42.7617 45.68C42.4396 45.9424 42.2965 46.181 42.2965 46.5031C42.2965 46.9325 42.6424 47.2903 43.0599 47.2903C43.3342 47.2903 43.4893 47.2187 43.7159 47.004L44.7178 46.1929V52.5983C44.7178 53.1589 45.0518 53.5287 45.5767 53.5287ZM51.5645 53.6479C53.5684 53.6479 54.8805 52.3597 54.8805 50.3797C54.8805 48.6024 53.6877 47.3857 52.0536 47.3857C51.326 47.3857 50.5626 47.7317 50.2286 48.2923L50.4194 45.7874H53.8428C54.2722 45.7874 54.5942 45.4534 54.5942 45.0001C54.5942 44.5469 54.2722 44.2487 53.8428 44.2487H50.0497C49.3936 44.2487 49.0239 44.6423 48.9761 45.3341L48.7376 48.7336C48.6779 49.3777 49.0358 49.6998 49.5964 49.6998C50.0377 49.6998 50.2047 49.6163 50.5268 49.3658C50.9443 48.996 51.2902 48.829 51.7554 48.829C52.638 48.829 53.2106 49.4731 53.2106 50.4155C53.2106 51.3936 52.5307 52.1092 51.6242 52.1092C50.9443 52.1092 50.3956 51.7275 50.0855 51.155C49.9065 50.8687 49.6918 50.7017 49.3578 50.7017C48.9165 50.7017 48.6064 51.0119 48.6064 51.4651C48.6064 51.644 48.6422 51.811 48.7137 51.99C49.0358 52.813 50.0974 53.6479 51.5645 53.6479Z" fill="white"/>
<defs>
<filter id="filter0_dd_2_41" x="0" y="0" width="97" height="97" filterUnits="userSpaceOnUse" color-interpolation-filters="sRGB">
<feFlood flood-opacity="0" result="BackgroundImageFix"/>
<feColorMatrix in="SourceAlpha" type="matrix" values="0 0 0 0 0 0 0 0 0 0 0 0 0 0 0 0 0 0 127 0" result="hardAlpha"/>
<feOffset dx="-4" dy="-4"/>
<feGaussianBlur stdDeviation="6"/>
<feComposite in2="hardAlpha" operator="out"/>
<feColorMatrix type="matrix" values="0 0 0 0 0.125 0 0 0 0 0.125 0 0 0 0 0.125 0 0 0 1 0"/>
<feBlend mode="normal" in2="BackgroundImageFix" result="effect1_dropShadow_2_41"/>
<feColorMatrix in="SourceAlpha" type="matrix" values="0 0 0 0 0 0 0 0 0 0 0 0 0 0 0 0 0 0 127 0" result="hardAlpha"/>
<feOffset dx="4" dy="4"/>
<feGaussianBlur stdDeviation="6"/>
<feComposite in2="hardAlpha" operator="out"/>
<feColorMatrix type="matrix" values="0 0 0 0 0 0 0 0 0 0 0 0 0 0 0 0 0 0 0.5 0"/>
<feBlend mode="normal" in2="effect1_dropShadow_2_41" result="effect2_dropShadow_2_41"/>
<feBlend mode="normal" in="SourceGraphic" in2="effect2_dropShadow_2_41" result="shape"/>
</filter>
</defs>
</svg>
