<svg width="150" height="151" viewBox="0 0 150 151" fill="none" xmlns="http://www.w3.org/2000/svg">
<g filter="url(#filter0_dd_2_45)">
<circle cx="75" cy="75" r="55" fill="#141414"/>
</g>
<path d="M64.7356 91.6682H69.8254C71.883 91.6682 72.9443 90.6069 72.9443 88.5493V58.7469C72.9443 56.646 71.883 55.6496 69.8254 55.628H64.7356C62.678 55.628 61.6167 56.6893 61.6167 58.7469V88.5493C61.5951 90.6069 62.6563 91.6682 64.7356 91.6682ZM81.1962 91.6682H86.2644C88.322 91.6682 89.3832 90.6069 89.3832 88.5493V58.7469C89.3832 56.646 88.322 55.628 86.2644 55.628H81.1962C79.117 55.628 78.0774 56.6893 78.0774 58.7469V88.5493C78.0774 90.6069 79.117 91.6682 81.1962 91.6682Z" fill="white"/>
<defs>
<filter id="filter0_dd_2_45" x="-1" y="-1" width="152" height="152" filterUnits="userSpaceOnUse" color-interpolation-filters="sRGB">
<feFlood flood-opacity="0" result="BackgroundImageFix"/>
<feColorMatrix in="SourceAlpha" type="matrix" values="0 0 0 0 0 0 0 0 0 0 0 0 0 0 0 0 0 0 127 0" result="hardAlpha"/>
<feOffset dx="-9" dy="-9"/>
<feGaussianBlur stdDeviation="6"/>
<feComposite in2="hardAlpha" operator="out"/>
<feColorMatrix type="matrix" values="0 0 0 0 0.125 0 0 0 0 0.125 0 0 0 0 0.125 0 0 0 1 0"/>
<feBlend mode="normal" in2="BackgroundImageFix" result="effect1_dropShadow_2_45"/>
<feColorMatrix in="SourceAlpha" type="matrix" values="0 0 0 0 0 0 0 0 0 0 0 0 0 0 0 0 0 0 127 0" result="hardAlpha"/>
<feOffset dx="9" dy="9"/>
<feGaussianBlur stdDeviation="6"/>
<feComposite in2="hardAlpha" operator="out"/>
<feColorMatrix type="matrix" values="0 0 0 0 0 0 0 0 0 0 0 0 0 0 0 0 0 0 0.5 0"/>
<feBlend mode="normal" in2="effect1_dropShadow_2_45" result="effect2_dropShadow_2_45"/>
<feBlend mode="normal" in="SourceGraphic" in2="effect2_dropShadow_2_45" result="shape"/>
</filter>
</defs>
</svg>
