<svg width="97" height="97" viewBox="0 0 97 97" fill="none" xmlns="http://www.w3.org/2000/svg">
<g filter="url(#filter0_dd_44_24)">
<circle cx="48.5" cy="48.5" r="32.5" fill="#141414"/>
</g>
<path d="M49.988 58.8763C56.7512 58.8763 62.3335 53.294 62.3335 46.5308C62.3335 40.6145 58.0514 35.6048 52.4571 34.4477V32.6943C52.4571 31.7878 51.7772 31.5254 51.0377 32.0621L47.006 34.9129C46.3977 35.3543 46.3977 36.0222 47.006 36.4517L51.0258 39.3144C51.7653 39.8511 52.4571 39.6126 52.4571 38.6822V36.9646C56.7274 38.05 59.8525 41.9028 59.8525 46.5308C59.8525 52.0058 55.463 56.4072 49.988 56.4072C44.5131 56.4072 40.1117 52.0058 40.1236 46.5308C40.1355 43.346 41.6265 40.5668 43.9644 38.7657C44.525 38.2766 44.7039 37.5729 44.2745 36.9884C43.8809 36.4278 43.1056 36.3324 42.4615 36.8572C39.563 39.0281 37.6545 42.6781 37.6545 46.5308C37.6545 53.294 43.2368 58.8763 49.988 58.8763ZM46.5766 51.5287C47.1134 51.5287 47.4474 51.1708 47.4474 50.5983V43.2029C47.4474 42.4872 47.0657 42.1175 46.4335 42.1175C46.0518 42.1175 45.7655 42.2367 45.3003 42.5827L43.7616 43.68C43.4396 43.9424 43.2964 44.181 43.2964 44.5031C43.2964 44.9325 43.6423 45.2903 44.0598 45.2903C44.3342 45.2903 44.4892 45.2187 44.7159 45.004L45.7178 44.1929V50.5983C45.7178 51.1589 46.0518 51.5287 46.5766 51.5287ZM52.5645 51.6479C54.5684 51.6479 55.8805 50.3597 55.8805 48.3797C55.8805 46.6024 54.6877 45.3857 53.0535 45.3857C52.3259 45.3857 51.5625 45.7316 51.2286 46.2923L51.4194 43.7874H54.8427C55.2722 43.7874 55.5942 43.4534 55.5942 43.0001C55.5942 42.5469 55.2722 42.2487 54.8427 42.2487H51.0496C50.3936 42.2487 50.0238 42.6423 49.9761 43.3341L49.7376 46.7336C49.6779 47.3777 50.0358 47.6998 50.5964 47.6998C51.0377 47.6998 51.2047 47.6163 51.5268 47.3658C51.9442 46.996 52.2902 46.829 52.7553 46.829C53.638 46.829 54.2106 47.4731 54.2106 48.4155C54.2106 49.3935 53.5307 50.1092 52.6241 50.1092C51.9442 50.1092 51.3956 49.7275 51.0854 49.155C50.9065 48.8687 50.6918 48.7017 50.3578 48.7017C49.9165 48.7017 49.6063 49.0119 49.6063 49.4651C49.6063 49.644 49.6421 49.811 49.7137 49.99C50.0358 50.813 51.0974 51.6479 52.5645 51.6479Z" fill="#FA6400"/>
<defs>
<filter id="filter0_dd_44_24" x="0" y="0" width="97" height="97" filterUnits="userSpaceOnUse" color-interpolation-filters="sRGB">
<feFlood flood-opacity="0" result="BackgroundImageFix"/>
<feColorMatrix in="SourceAlpha" type="matrix" values="0 0 0 0 0 0 0 0 0 0 0 0 0 0 0 0 0 0 127 0" result="hardAlpha"/>
<feOffset dx="4" dy="4"/>
<feGaussianBlur stdDeviation="6"/>
<feComposite in2="hardAlpha" operator="out"/>
<feColorMatrix type="matrix" values="0 0 0 0 0.125 0 0 0 0 0.125 0 0 0 0 0.125 0 0 0 1 0"/>
<feBlend mode="normal" in2="BackgroundImageFix" result="effect1_dropShadow_44_24"/>
<feColorMatrix in="SourceAlpha" type="matrix" values="0 0 0 0 0 0 0 0 0 0 0 0 0 0 0 0 0 0 127 0" result="hardAlpha"/>
<feOffset dx="-4" dy="-4"/>
<feGaussianBlur stdDeviation="6"/>
<feComposite in2="hardAlpha" operator="out"/>
<feColorMatrix type="matrix" values="0 0 0 0 0 0 0 0 0 0 0 0 0 0 0 0 0 0 0.5 0"/>
<feBlend mode="normal" in2="effect1_dropShadow_44_24" result="effect2_dropShadow_44_24"/>
<feBlend mode="normal" in="SourceGraphic" in2="effect2_dropShadow_44_24" result="shape"/>
</filter>
</defs>
</svg>
