<svg width="97" height="97" viewBox="0 0 97 97" fill="none" xmlns="http://www.w3.org/2000/svg">
<g filter="url(#filter0_dd_44_29)">
<circle cx="48.5" cy="48.5" r="32.5" fill="#141414"/>
</g>
<g clip-path="url(#clip0_44_29)">
<path d="M36.4824 53.9668H38.5479C39.3828 53.9668 39.8135 53.5361 39.8135 52.7012V47.0059C39.7783 46.8916 39.7695 46.7773 39.7695 46.6455C39.7695 46.5225 39.7783 46.3994 39.8135 46.2939V40.6074C39.8135 39.7549 39.3828 39.3506 38.5479 39.3418H36.4824C35.6475 39.3418 35.2168 39.7725 35.2168 40.6074V52.7012C35.208 53.5361 35.6387 53.9668 36.4824 53.9668ZM50.8701 53.7295C51.6436 53.7295 52.294 53.1494 52.294 52.0771V47.0059C52.4082 47.4365 52.7334 47.7969 53.252 48.1045L62.2608 53.3955C62.6387 53.6152 62.9727 53.7295 63.3594 53.7295C64.1328 53.7295 64.7832 53.1494 64.7832 52.0771V41.2314C64.7832 40.1592 64.1328 39.5791 63.3594 39.5791C62.9727 39.5791 62.6387 39.6934 62.2608 39.9131L53.252 45.2041C52.7246 45.5205 52.4082 45.8633 52.294 46.2939V41.2314C52.294 40.1592 51.6524 39.5791 50.8789 39.5791C50.4922 39.5791 50.1582 39.6934 49.7715 39.9131L40.7627 45.2041C40.2442 45.5205 39.919 45.8633 39.8135 46.2939V47.0059C39.9277 47.4365 40.2442 47.7969 40.7627 48.1045L49.7715 53.3955C50.1582 53.6152 50.4834 53.7295 50.8701 53.7295Z" fill="#FA6400"/>
</g>
<defs>
<filter id="filter0_dd_44_29" x="0" y="0" width="97" height="97" filterUnits="userSpaceOnUse" color-interpolation-filters="sRGB">
<feFlood flood-opacity="0" result="BackgroundImageFix"/>
<feColorMatrix in="SourceAlpha" type="matrix" values="0 0 0 0 0 0 0 0 0 0 0 0 0 0 0 0 0 0 127 0" result="hardAlpha"/>
<feOffset dx="4" dy="4"/>
<feGaussianBlur stdDeviation="6"/>
<feComposite in2="hardAlpha" operator="out"/>
<feColorMatrix type="matrix" values="0 0 0 0 0.125 0 0 0 0 0.125 0 0 0 0 0.125 0 0 0 1 0"/>
<feBlend mode="normal" in2="BackgroundImageFix" result="effect1_dropShadow_44_29"/>
<feColorMatrix in="SourceAlpha" type="matrix" values="0 0 0 0 0 0 0 0 0 0 0 0 0 0 0 0 0 0 127 0" result="hardAlpha"/>
<feOffset dx="-4" dy="-4"/>
<feGaussianBlur stdDeviation="6"/>
<feComposite in2="hardAlpha" operator="out"/>
<feColorMatrix type="matrix" values="0 0 0 0 0 0 0 0 0 0 0 0 0 0 0 0 0 0 0.5 0"/>
<feBlend mode="normal" in2="effect1_dropShadow_44_29" result="effect2_dropShadow_44_29"/>
<feBlend mode="normal" in="SourceGraphic" in2="effect2_dropShadow_44_29" result="shape"/>
</filter>
<clipPath id="clip0_44_29">
<rect width="28" height="28" fill="white" transform="translate(36 33)"/>
</clipPath>
</defs>
</svg>
