<svg width="97" height="97" viewBox="0 0 97 97" fill="none" xmlns="http://www.w3.org/2000/svg">
<g filter="url(#filter0_dd_2_42)">
<circle cx="48.5" cy="48.5" r="32.5" fill="#141414"/>
</g>
<path d="M47.988 60.8763C54.7512 60.8763 60.3335 55.294 60.3335 48.5308C60.3335 42.6145 56.0514 37.6048 50.4571 36.4477V34.6943C50.4571 33.7878 49.7772 33.5254 49.0377 34.0621L45.006 36.9129C44.3977 37.3543 44.3977 38.0222 45.006 38.4517L49.0258 41.3144C49.7653 41.8511 50.4571 41.6126 50.4571 40.6822V38.9646C54.7274 40.05 57.8525 43.9028 57.8525 48.5308C57.8525 54.0058 53.463 58.4072 47.988 58.4072C42.5131 58.4072 38.1117 54.0058 38.1236 48.5308C38.1355 45.346 39.6265 42.5668 41.9644 40.7657C42.525 40.2766 42.7039 39.5729 42.2745 38.9884C41.8809 38.4278 41.1056 38.3324 40.4615 38.8572C37.563 41.0281 35.6545 44.6781 35.6545 48.5308C35.6545 55.294 41.2368 60.8763 47.988 60.8763ZM44.5766 53.5287C45.1134 53.5287 45.4474 53.1708 45.4474 52.5983V45.2029C45.4474 44.4872 45.0657 44.1175 44.4335 44.1175C44.0518 44.1175 43.7655 44.2367 43.3003 44.5827L41.7616 45.68C41.4396 45.9424 41.2964 46.181 41.2964 46.5031C41.2964 46.9325 41.6423 47.2903 42.0598 47.2903C42.3342 47.2903 42.4892 47.2187 42.7159 47.004L43.7178 46.1929V52.5983C43.7178 53.1589 44.0518 53.5287 44.5766 53.5287ZM50.5645 53.6479C52.5684 53.6479 53.8805 52.3597 53.8805 50.3797C53.8805 48.6024 52.6877 47.3857 51.0535 47.3857C50.3259 47.3857 49.5625 47.7316 49.2286 48.2923L49.4194 45.7874H52.8427C53.2722 45.7874 53.5942 45.4534 53.5942 45.0001C53.5942 44.5469 53.2722 44.2487 52.8427 44.2487H49.0496C48.3936 44.2487 48.0238 44.6423 47.9761 45.3341L47.7376 48.7336C47.6779 49.3777 48.0358 49.6998 48.5964 49.6998C49.0377 49.6998 49.2047 49.6163 49.5268 49.3658C49.9442 48.996 50.2902 48.829 50.7553 48.829C51.638 48.829 52.2106 49.4731 52.2106 50.4155C52.2106 51.3935 51.5307 52.1092 50.6241 52.1092C49.9442 52.1092 49.3956 51.7275 49.0854 51.155C48.9065 50.8687 48.6918 50.7017 48.3578 50.7017C47.9165 50.7017 47.6063 51.0119 47.6063 51.4651C47.6063 51.644 47.6421 51.811 47.7137 51.9899C48.0358 52.813 49.0974 53.6479 50.5645 53.6479Z" fill="white"/>
<defs>
<filter id="filter0_dd_2_42" x="0" y="0" width="97" height="97" filterUnits="userSpaceOnUse" color-interpolation-filters="sRGB">
<feFlood flood-opacity="0" result="BackgroundImageFix"/>
<feColorMatrix in="SourceAlpha" type="matrix" values="0 0 0 0 0 0 0 0 0 0 0 0 0 0 0 0 0 0 127 0" result="hardAlpha"/>
<feOffset dx="-4" dy="-4"/>
<feGaussianBlur stdDeviation="6"/>
<feComposite in2="hardAlpha" operator="out"/>
<feColorMatrix type="matrix" values="0 0 0 0 0.125 0 0 0 0 0.125 0 0 0 0 0.125 0 0 0 1 0"/>
<feBlend mode="normal" in2="BackgroundImageFix" result="effect1_dropShadow_2_42"/>
<feColorMatrix in="SourceAlpha" type="matrix" values="0 0 0 0 0 0 0 0 0 0 0 0 0 0 0 0 0 0 127 0" result="hardAlpha"/>
<feOffset dx="4" dy="4"/>
<feGaussianBlur stdDeviation="6"/>
<feComposite in2="hardAlpha" operator="out"/>
<feColorMatrix type="matrix" values="0 0 0 0 0 0 0 0 0 0 0 0 0 0 0 0 0 0 0.5 0"/>
<feBlend mode="normal" in2="effect1_dropShadow_2_42" result="effect2_dropShadow_2_42"/>
<feBlend mode="normal" in="SourceGraphic" in2="effect2_dropShadow_2_42" result="shape"/>
</filter>
</defs>
</svg>
